<?xml version="1.0" standalone="no"?>
<!DOCTYPE svg PUBLIC "-//W3C//DTD SVG 20010904//EN"
 "http://www.w3.org/TR/2001/REC-SVG-20010904/DTD/svg10.dtd">
<svg version="1.0" xmlns="http://www.w3.org/2000/svg"
 width="2248.000000pt" height="2248.000000pt" viewBox="0 0 2248.000000 2248.000000"
 preserveAspectRatio="xMidYMid meet">
<metadata>
Created by potrace 1.11, written by Peter Selinger 2001-2013
</metadata>
<g transform="translate(0.000000,2248.000000) scale(0.100000,-0.100000)"
fill="#000000" stroke="none">
<path d="M11064 22397 c-22 -45 -111 -221 -198 -392 -87 -170 -226 -443 -309
-605 -82 -162 -154 -301 -159 -307 -6 -7 -7 -13 -3 -13 4 0 3 -6 -3 -12 -11
-15 -319 -623 -867 -1714 l-397 -791 99 -199 c157 -315 308 -656 417 -939 15
-38 31 -79 35 -90 139 -335 412 -1176 566 -1745 51 -186 66 -246 90 -340 15
-58 28 -112 30 -120 2 -8 19 -78 39 -155 59 -233 191 -814 222 -972 10 -55 40
-200 48 -238 13 -62 85 -436 92 -480 3 -16 13 -75 24 -130 11 -55 21 -113 23
-130 3 -16 10 -58 16 -93 7 -35 14 -75 16 -90 2 -15 6 -37 9 -49 2 -11 8 -43
12 -70 3 -26 8 -57 10 -68 2 -11 6 -33 9 -50 30 -184 54 -336 59 -375 12 -86
17 -114 21 -134 2 -12 7 -41 10 -66 3 -25 7 -54 9 -65 3 -20 14 -95 21 -150 2
-16 9 -64 15 -105 11 -81 15 -107 25 -185 3 -27 8 -61 11 -75 2 -14 7 -47 9
-75 6 -62 13 -113 19 -145 3 -14 7 -52 11 -85 3 -32 7 -61 9 -63 3 -2 4 2562
4 5697 0 3136 -1 5701 -1 5701 -1 0 -20 -37 -43 -83z"/>
<path d="M11371 16769 c1 -5820 1 -5728 33 -5469 3 25 10 81 16 125 6 44 13
98 16 120 2 22 7 51 9 65 6 28 12 80 21 160 3 30 7 57 9 60 2 3 6 30 10 60 7
60 13 101 20 140 2 14 7 45 10 70 3 25 10 70 15 100 5 30 12 73 15 95 3 22 8
51 10 65 3 14 7 43 10 65 4 22 10 65 15 95 5 30 12 69 14 85 22 132 60 358 76
445 11 58 22 121 25 140 8 47 14 80 20 110 7 38 26 132 31 160 2 14 7 36 9 50
3 14 8 39 11 55 3 17 19 98 35 180 17 83 33 161 35 175 3 14 10 45 15 70 6 25
13 56 15 70 3 14 18 88 35 165 17 77 32 148 34 158 2 10 6 26 9 35 3 9 7 28
10 42 2 14 25 113 50 220 26 107 49 206 52 220 3 14 12 52 21 85 8 33 16 65
17 70 1 6 5 19 9 30 3 11 8 31 11 45 3 14 14 59 24 100 11 41 37 138 57 215
43 164 128 463 185 655 23 74 42 140 44 145 28 104 215 662 232 697 8 15 14
29 13 30 -3 5 13 53 58 173 190 505 328 826 525 1218 l99 199 -337 671 c-351
700 -725 1442 -994 1972 -87 171 -231 454 -320 630 -209 411 -321 629 -326
634 -2 2 -3 -2563 -3 -5700z"/>
<path d="M8690 17683 c-552 -1109 -1111 -2242 -1420 -2878 -257 -529 -463
-955 -585 -1210 -29 -60 -84 -175 -122 -255 -243 -506 -306 -641 -302 -644 2
-2 56 -39 119 -82 394 -267 836 -657 1191 -1048 30 -33 63 -69 74 -80 72 -74
317 -369 502 -606 24 -30 47 -59 51 -65 40 -51 290 -403 374 -525 141 -208
349 -535 448 -705 173 -296 204 -351 305 -535 102 -184 115 -210 264 -505 131
-260 182 -365 304 -625 88 -188 283 -640 359 -830 16 -41 36 -88 43 -105 93
-213 360 -965 475 -1335 23 -74 46 -146 51 -160 8 -22 29 -97 99 -340 23 -81
107 -396 125 -470 18 -74 28 -114 30 -120 1 -3 7 -31 14 -62 7 -32 14 -58 17
-58 5 0 -3 3505 -9 3605 -3 44 -8 145 -12 225 -8 189 -19 392 -30 565 -3 39
-7 111 -10 160 -3 50 -8 122 -11 160 -10 121 -12 147 -18 250 -4 55 -9 118
-11 140 -8 75 -14 150 -20 230 -4 44 -8 94 -10 110 -2 17 -7 66 -10 109 -4 43
-8 86 -10 95 -1 9 -6 56 -10 105 -4 49 -8 96 -10 105 -1 9 -6 54 -10 101 -4
47 -8 87 -10 90 -2 3 -6 41 -10 85 -3 44 -8 94 -10 110 -5 39 -13 107 -20 170
-3 28 -7 64 -10 80 -2 17 -7 57 -11 90 -3 33 -8 67 -9 75 -2 8 -6 47 -11 85
-4 39 -8 72 -9 75 -1 3 -5 37 -9 75 -5 39 -10 77 -11 85 -6 36 -15 99 -21 150
-3 30 -7 57 -9 60 -2 3 -6 30 -9 60 -4 30 -8 66 -10 80 -5 32 -15 103 -21 155
-3 22 -7 51 -10 65 -5 25 -7 36 -20 135 -3 28 -8 57 -10 65 -3 8 -7 33 -10 55
-3 22 -7 49 -9 61 -2 12 -7 45 -11 75 -4 30 -8 56 -10 59 -2 3 -7 33 -10 65
-4 33 -9 62 -10 65 -2 3 -6 26 -10 50 -3 25 -12 81 -20 125 -44 255 -67 383
-71 403 -2 12 -6 34 -9 50 -3 15 -10 50 -15 77 -5 28 -12 66 -15 85 -4 19 -10
53 -15 75 -5 22 -11 56 -15 75 -3 19 -8 49 -12 65 -4 17 -6 33 -5 37 1 4 -2
18 -7 31 -5 13 -12 39 -15 58 -4 28 -20 106 -71 354 -9 44 -27 122 -35 160 -5
22 -21 94 -36 160 -14 66 -43 194 -65 285 -22 91 -42 174 -44 185 -39 176
-210 809 -305 1125 -141 473 -395 1212 -470 1375 -5 11 -26 61 -46 110 -104
259 -341 786 -363 808 -5 5 -129 -233 -301 -580z"/>
<path d="M13416 18119 c-40 -85 -106 -228 -146 -319 -39 -91 -80 -184 -91
-207 -10 -24 -19 -46 -19 -49 0 -3 -6 -20 -14 -37 -13 -27 -29 -68 -71 -172
-4 -11 -16 -40 -25 -65 -9 -25 -32 -83 -49 -130 -87 -225 -231 -640 -233 -667
0 -5 -4 -16 -9 -25 -8 -15 -135 -416 -145 -458 -2 -8 -17 -60 -34 -115 -17
-55 -39 -131 -50 -170 -10 -38 -44 -162 -75 -275 -31 -113 -90 -342 -131 -510
-41 -168 -79 -321 -84 -340 -8 -30 -95 -421 -106 -474 -5 -29 -46 -219 -48
-231 -3 -11 -17 -82 -21 -105 -2 -8 -17 -82 -34 -165 -16 -82 -33 -166 -36
-185 -3 -19 -14 -80 -25 -135 -11 -55 -27 -140 -35 -190 -9 -49 -22 -126 -30
-170 -22 -127 -73 -426 -79 -470 -4 -22 -11 -65 -16 -95 -9 -53 -13 -84 -25
-167 -3 -21 -8 -49 -10 -63 -6 -31 -5 -24 -59 -410 -25 -173 -47 -335 -50
-360 -15 -124 -18 -147 -22 -175 -3 -16 -7 -50 -10 -75 -2 -25 -9 -83 -15
-130 -6 -47 -12 -105 -15 -130 -5 -52 -13 -114 -19 -150 -2 -14 -7 -61 -10
-104 -4 -43 -8 -86 -10 -95 -1 -9 -6 -45 -9 -81 -4 -36 -9 -81 -11 -100 -4
-37 -12 -118 -20 -210 -7 -80 -16 -169 -21 -213 -4 -35 -8 -93 -19 -227 -2
-30 -7 -82 -10 -115 -6 -73 -13 -157 -20 -250 -2 -38 -7 -99 -9 -135 -17 -228
-23 -313 -31 -495 -3 -71 -8 -152 -10 -180 -2 -27 -7 -120 -10 -205 -4 -85 -9
-184 -12 -220 -3 -36 -7 -868 -9 -1850 l-3 -1785 39 150 c38 151 99 385 115
442 48 181 182 633 202 683 3 8 7 20 8 25 8 37 168 505 225 660 10 28 34 93
53 145 64 177 253 656 302 765 8 17 40 93 73 170 73 170 128 295 175 395 19
41 46 100 60 130 25 54 136 288 174 365 44 90 285 558 297 578 7 12 31 56 53
97 68 127 295 521 363 630 5 8 21 35 36 60 112 187 404 629 531 805 23 33 51
71 60 85 69 96 336 445 353 460 3 3 24 28 46 57 42 53 76 94 213 252 204 237
521 558 725 736 38 33 76 67 85 75 9 8 41 35 71 60 30 25 57 47 60 51 6 6 116
91 230 177 41 31 124 89 185 130 60 40 111 75 113 76 3 4 -34 86 -118 261 -65
135 -128 267 -223 465 -30 63 -85 178 -122 255 -37 77 -91 190 -120 250 -29
61 -99 205 -155 320 -56 116 -133 273 -170 350 -139 290 -681 1394 -1013 2065
-277 561 -797 1603 -802 1609 -3 2 -38 -65 -79 -150z"/>
<path d="M6105 12377 c-21 -45 -53 -113 -71 -152 -17 -38 -55 -119 -84 -180
-29 -60 -65 -137 -80 -170 -15 -33 -51 -109 -79 -169 -28 -59 -51 -110 -51
-111 0 -2 -24 -54 -54 -117 -29 -62 -85 -183 -124 -268 -38 -85 -83 -184 -100
-220 -16 -36 -38 -85 -50 -110 -11 -25 -51 -115 -90 -200 -60 -133 -176 -398
-357 -815 -142 -326 -425 -1050 -425 -1087 0 -8 -4 -18 -9 -23 -10 -12 -64
-202 -85 -300 -26 -117 -13 -355 28 -540 80 -362 294 -794 639 -1290 70 -100
257 -355 267 -365 3 -3 41 -53 85 -112 44 -59 83 -107 87 -108 4 0 31 11 60
24 126 57 150 66 253 101 61 20 117 38 125 40 8 2 53 13 100 24 88 22 114 28
165 36 17 3 41 7 55 10 14 2 49 7 79 10 30 4 63 9 75 12 12 2 127 7 256 10
129 3 236 6 238 8 1 1 5 26 8 56 4 49 16 147 30 254 5 39 37 229 49 290 40
203 157 590 240 790 266 641 627 1148 1151 1615 65 58 261 211 302 236 8 5
-451 711 -497 766 -6 7 -57 76 -112 153 -87 120 -321 426 -354 461 -5 7 -26
31 -45 55 -164 203 -361 420 -585 644 -216 216 -294 288 -500 460 -136 114
-448 343 -486 357 -13 5 -25 -12 -54 -75z"/>
<path d="M16300 12442 c-244 -173 -422 -308 -536 -408 -12 -11 -45 -39 -74
-63 -278 -237 -686 -666 -986 -1037 -88 -110 -113 -141 -173 -219 -17 -22 -34
-44 -39 -50 -86 -108 -362 -499 -504 -715 -198 -303 -251 -393 -236 -401 8 -5
65 -47 126 -94 586 -451 1067 -1101 1341 -1815 18 -47 37 -94 41 -105 81 -202
202 -699 225 -920 3 -33 8 -67 10 -75 2 -8 7 -44 10 -80 6 -69 16 -144 18
-147 1 0 97 -3 212 -4 116 -2 233 -6 260 -10 28 -5 100 -15 162 -24 139 -20
319 -63 460 -111 105 -35 137 -48 256 -102 35 -16 61 -22 66 -16 4 5 43 56 87
114 43 58 82 110 87 115 4 6 39 53 77 105 38 52 73 100 78 105 45 54 295 430
350 525 11 19 37 64 57 100 41 69 137 260 184 363 58 127 138 377 157 487 3
14 9 50 15 80 5 30 12 116 15 190 5 113 3 151 -15 237 -57 277 -284 871 -671
1758 -59 136 -311 698 -351 783 -21 46 -39 85 -39 87 0 2 -25 55 -55 120 -30
64 -55 118 -55 120 0 2 -20 45 -44 97 -24 51 -57 122 -74 158 -42 92 -228 490
-301 645 -34 72 -71 151 -84 178 -12 26 -24 47 -27 47 -3 0 -16 -9 -30 -18z"/>
<path d="M8845 9327 c-11 -6 -24 -14 -30 -19 -5 -4 -39 -31 -75 -59 -155 -120
-203 -162 -350 -309 -143 -143 -170 -173 -264 -290 -37 -47 -79 -98 -92 -115
-41 -49 -228 -334 -276 -420 -204 -359 -379 -820 -454 -1190 -2 -11 -8 -42
-14 -70 -6 -27 -15 -75 -20 -105 -5 -30 -12 -64 -14 -75 -2 -11 -7 -45 -10
-76 -4 -31 -8 -65 -10 -76 -3 -11 -7 -46 -10 -79 -4 -32 -9 -82 -12 -111 l-6
-52 49 -6 c218 -29 508 -110 755 -211 119 -48 361 -166 428 -209 22 -14 44
-25 50 -25 5 0 10 -4 10 -10 0 -5 5 -10 10 -10 17 0 256 -163 371 -252 196
-153 379 -322 574 -533 221 -240 528 -669 709 -993 23 -42 53 -95 66 -117 28
-50 178 -348 218 -435 127 -277 280 -668 367 -940 10 -30 22 -64 26 -75 14
-35 104 -340 135 -455 26 -94 65 -244 69 -260 17 -76 58 -236 61 -239 6 -7 -4
1338 -10 1404 -4 33 -11 101 -16 150 -6 50 -13 108 -15 130 -12 115 -18 162
-21 180 -4 18 -17 104 -29 190 -3 17 -7 41 -10 55 -3 14 -8 45 -11 70 -3 25
-7 53 -10 62 -7 22 -13 56 -20 98 -14 93 -75 381 -126 595 -16 72 -32 137 -33
145 -2 8 -4 16 -5 18 -3 2 -3 3 -14 52 -5 19 -37 141 -73 270 -35 129 -66 242
-68 250 -29 116 -226 733 -318 995 -67 191 -177 489 -209 565 -18 43 -26 62
-72 180 -67 172 -178 437 -231 555 -12 28 -37 84 -55 125 -18 41 -48 109 -67
150 -20 41 -61 131 -93 200 -67 147 -282 579 -365 736 -95 178 -280 511 -322
576 -12 21 -23 42 -23 47 0 19 -25 30 -45 18z"/>
<path d="M13582 9298 c-12 -24 -32 -61 -45 -83 -25 -44 -60 -106 -117 -205
-20 -36 -59 -105 -85 -155 -26 -49 -64 -119 -83 -155 -71 -131 -280 -550 -369
-740 -425 -906 -780 -1846 -1048 -2775 -82 -282 -214 -799 -241 -945 -3 -14
-10 -45 -15 -70 -15 -63 -14 -59 -47 -230 -27 -136 -53 -281 -68 -375 -2 -16
-6 -41 -9 -55 -2 -14 -7 -45 -10 -70 -4 -25 -8 -56 -10 -70 -2 -14 -6 -47 -10
-75 -3 -27 -8 -61 -10 -75 -4 -31 -13 -113 -20 -200 -3 -36 -9 -83 -12 -105
-3 -22 -7 -348 -9 -725 l-3 -685 49 193 c53 211 116 443 130 482 5 14 21 66
36 115 219 733 542 1463 882 1990 94 146 136 210 142 215 3 3 14 18 24 35 11
16 23 34 28 40 4 5 44 57 87 115 170 226 342 417 553 615 360 339 775 606
1197 771 64 25 125 49 136 54 47 20 356 106 424 116 18 3 43 8 55 10 22 5 136
23 147 24 4 0 6 15 4 33 -5 70 -17 182 -21 201 -2 12 -6 41 -9 65 -33 274
-126 647 -230 926 -236 632 -609 1179 -1094 1603 -98 86 -286 232 -299 232 -5
0 -18 -19 -30 -42z"/>
<path d="M6598 5995 c-2 -1 -38 -6 -82 -9 -43 -3 -88 -8 -100 -11 -11 -2 -37
-7 -56 -10 -227 -33 -624 -164 -603 -198 3 -7 32 -46 63 -87 351 -466 426
-628 495 -1070 29 -186 50 -460 54 -710 l2 -125 40 80 c147 292 267 465 458
656 117 116 158 150 276 231 158 108 421 223 585 257 57 12 87 18 118 25 17 4
81 12 167 21 52 6 374 7 400 1 11 -2 52 -7 90 -11 155 -15 459 -82 594 -129
24 -9 46 -16 49 -16 6 0 -186 189 -254 250 -287 258 -572 443 -949 615 -97 45
-392 144 -473 160 -13 2 -32 7 -42 10 -31 10 -254 49 -348 61 -43 5 -479 14
-484 9z"/>
<path d="M15500 5993 c-159 -15 -309 -38 -426 -64 -141 -31 -402 -113 -477
-149 -22 -11 -44 -20 -49 -20 -14 0 -252 -118 -343 -171 -205 -118 -397 -254
-579 -413 -77 -66 -297 -278 -293 -282 1 -2 29 6 62 17 33 11 68 21 80 24 11
3 74 18 140 35 137 35 153 38 215 45 25 3 52 8 60 10 13 4 44 8 160 21 47 5
390 6 415 0 11 -2 45 -7 76 -10 31 -4 67 -9 80 -11 13 -3 40 -8 59 -11 142
-25 450 -136 501 -180 8 -8 19 -14 23 -14 5 0 43 -21 85 -47 296 -184 563
-493 756 -873 32 -63 59 -116 60 -118 2 -2 4 48 5 110 1 62 3 140 5 173 8 135
16 262 20 300 3 22 7 65 10 95 3 30 7 66 10 80 2 14 7 50 10 80 9 78 43 240
72 340 54 189 204 437 486 808 7 9 -6 19 -48 37 -57 26 -269 101 -309 110
-118 27 -263 55 -311 60 -33 4 -69 9 -80 12 -24 5 -426 11 -475 6z"/>
<path d="M8108 4815 c-2 -1 -39 -5 -83 -9 -310 -24 -623 -148 -860 -339 -50
-41 -178 -167 -226 -223 -232 -272 -427 -679 -548 -1147 -23 -90 -30 -143 -35
-266 -5 -122 -4 -152 6 -149 93 35 377 116 465 133 129 24 307 55 348 59 190
22 268 27 439 28 136 0 310 -7 391 -18 17 -2 55 -6 85 -9 202 -23 479 -85 705
-160 230 -76 325 -114 550 -225 491 -241 903 -540 1349 -978 65 -64 116 -112
113 -106 -3 5 -18 62 -32 125 -15 62 -28 121 -30 129 -87 366 -305 1045 -430
1335 -7 17 -23 55 -35 85 -12 30 -32 78 -45 105 -12 28 -33 75 -46 105 -48
114 -214 438 -303 593 -107 187 -238 390 -336 522 l-68 92 -143 61 c-234 99
-491 179 -679 212 -36 7 -74 14 -85 16 -26 5 -87 12 -155 20 -55 6 -307 13
-312 9z"/>
<path d="M14177 4815 c-1 -1 -42 -5 -92 -9 -308 -22 -695 -130 -1032 -287 -53
-25 -71 -40 -116 -102 -52 -70 -152 -215 -172 -249 -46 -78 -131 -216 -141
-228 -6 -8 -27 -44 -46 -80 -19 -36 -45 -83 -58 -105 -138 -243 -354 -732
-484 -1097 -124 -349 -283 -888 -322 -1088 -3 -14 -10 -43 -16 -65 -5 -22 -12
-51 -15 -64 -2 -14 -7 -29 -10 -35 -3 -6 54 48 128 121 74 72 154 149 178 170
25 21 54 47 65 58 12 11 59 51 106 90 47 38 87 72 90 75 18 21 297 222 405
292 557 363 1167 595 1743 662 552 65 1070 16 1612 -153 52 -16 103 -32 113
-36 16 -7 17 0 12 111 -12 231 -13 238 -92 494 -98 317 -258 651 -397 832 -12
14 -32 41 -46 59 -178 235 -427 424 -695 527 -84 32 -214 68 -281 77 -21 3
-48 7 -59 10 -64 13 -366 29 -378 20z"/>
<path d="M7468 2655 c-2 -2 -43 -6 -93 -9 -295 -21 -634 -94 -942 -202 l-103
-36 -1 -37 c-1 -20 -2 -47 -4 -61 -1 -14 -5 -68 -9 -120 -4 -52 -9 -111 -11
-130 -2 -19 -7 -69 -10 -110 -3 -41 -8 -91 -10 -110 -2 -19 -7 -60 -10 -90 -3
-30 -10 -89 -15 -130 -47 -386 -13 -585 125 -726 77 -79 191 -134 310 -149 28
-3 64 -8 80 -10 17 -3 726 -5 1576 -6 l1545 -1 20 -56 c22 -68 89 -140 155
-169 24 -11 96 -32 159 -48 185 -46 336 -118 405 -195 70 -77 123 -127 169
-158 73 -50 156 -89 205 -97 l43 -7 -5 38 c-4 22 -8 55 -11 74 -3 19 -10 71
-16 115 -6 44 -13 91 -15 105 -3 14 -7 43 -10 65 -3 22 -8 51 -10 65 -3 14 -7
43 -11 65 -5 41 -23 144 -50 294 -15 84 -16 85 -97 180 -189 223 -468 499
-667 660 -25 20 -47 39 -50 42 -24 27 -274 209 -410 299 -170 112 -272 170
-485 275 -246 121 -540 232 -715 270 -8 2 -51 13 -95 24 -114 28 -302 59 -475
77 -56 6 -457 14 -462 9z"/>
<path d="M14688 2655 c-2 -1 -48 -5 -103 -9 -55 -3 -111 -8 -125 -10 -14 -2
-54 -7 -90 -11 -36 -4 -67 -8 -70 -10 -3 -2 -26 -6 -50 -10 -25 -4 -110 -22
-190 -40 -463 -107 -959 -337 -1420 -660 -70 -49 -254 -189 -301 -229 -20 -17
-62 -53 -95 -81 -261 -223 -665 -651 -679 -721 -10 -50 -65 -377 -71 -419 -3
-22 -9 -65 -14 -95 -5 -30 -12 -75 -15 -100 -3 -25 -8 -56 -10 -70 -2 -14 -6
-45 -10 -70 -3 -25 -8 -62 -11 -83 l-6 -39 36 5 c87 12 272 126 332 204 39 52
70 80 131 119 96 63 182 96 343 134 108 26 192 65 232 107 26 27 78 126 78
149 0 9 396 12 1538 12 1598 0 1646 2 1773 43 165 53 254 142 314 314 26 72
29 95 31 230 1 83 -2 182 -7 220 -5 39 -11 93 -15 120 -3 28 -7 66 -9 85 -2
19 -7 67 -10 105 -3 39 -8 86 -10 105 -3 19 -7 62 -10 95 -2 33 -7 94 -11 135
-7 91 -12 166 -13 201 -1 29 8 25 -201 95 -100 33 -375 105 -450 118 -19 3
-44 8 -55 10 -29 6 -163 25 -210 31 -124 14 -167 17 -347 20 -108 1 -198 2
-200 0z"/>
</g>
</svg>
